<svg width="900" height="212" viewBox="0 0 900 212" fill="none" xmlns="http://www.w3.org/2000/svg">
<path d="M209.331 201.818C206.243 201.816 203.21 201.003 200.535 199.46C196.468 197.125 193.495 193.271 192.27 188.745C191.044 184.22 191.666 179.393 193.999 175.325L195.754 172.279L192.319 171.558C190.046 171.08 187.888 170.159 185.971 168.848C184.053 167.537 182.412 165.861 181.142 163.915C179.873 161.97 178.998 159.794 178.57 157.511C178.142 155.228 178.167 152.882 178.645 150.609C179.122 148.336 180.042 146.18 181.352 144.262C182.663 142.345 184.338 140.705 186.283 139.435C188.228 138.166 190.404 137.292 192.687 136.863C194.969 136.435 197.314 136.46 199.587 136.938V136.938L203.022 137.659L202.645 134.171C202.397 131.859 202.608 129.52 203.266 127.289C203.923 125.059 205.014 122.979 206.476 121.17C207.938 119.362 209.743 117.859 211.787 116.748C213.83 115.638 216.073 114.941 218.387 114.698C223.045 114.206 227.708 115.583 231.351 118.526C234.995 121.468 237.322 125.736 237.821 130.393L238.198 133.881L241.428 132.438C245.712 130.521 250.581 130.384 254.966 132.056C259.351 133.729 262.891 137.074 264.809 141.357C266.726 145.639 266.864 150.508 265.191 154.892C263.518 159.276 260.172 162.816 255.888 164.733L255.716 164.808L252.691 166.164L254.995 168.759C257.909 172.27 259.353 176.772 259.025 181.323C258.696 185.875 256.622 190.123 253.234 193.18C249.846 196.238 245.408 197.868 240.846 197.731C236.284 197.593 231.952 195.698 228.755 192.441V192.388L226.44 189.847L224.696 192.894C223.149 195.603 220.913 197.856 218.215 199.423C215.517 200.99 212.452 201.816 209.331 201.818V201.818Z" fill="white"/>
<path d="M223.661 174.01C231.308 174.01 237.507 167.812 237.507 160.167C237.507 152.521 231.308 146.323 223.661 146.323C216.014 146.323 209.814 152.521 209.814 160.167C209.814 167.812 216.014 174.01 223.661 174.01Z" fill="#FAB900"/>
<path d="M494.697 141.942C492.077 141.973 489.494 141.317 487.206 140.039C484.919 138.762 483.005 136.907 481.657 134.661C480.309 132.414 479.573 129.854 479.522 127.235C479.471 124.615 480.108 122.028 481.368 119.731L482.81 117.135L479.89 116.57C476.231 115.582 473.082 113.246 471.075 110.032C469.068 106.818 468.352 102.963 469.071 99.2432C469.79 95.5229 471.891 92.2125 474.951 89.9773C478.012 87.7421 481.805 86.7477 485.568 87.1939V87.1939L488.488 87.7593L488.119 84.8055C487.915 81.0136 489.158 77.2857 491.596 74.3738C494.033 71.4619 497.485 69.5829 501.255 69.1159C505.024 68.6488 508.83 69.6285 511.905 71.8573C514.98 74.0861 517.096 77.398 517.824 81.1249L518.193 84.0787L520.882 82.821C522.681 81.8222 524.666 81.2039 526.713 81.0045C528.761 80.8052 530.828 81.0291 532.785 81.6623C534.743 82.2955 536.549 83.3245 538.092 84.6852C539.635 86.046 540.881 87.7095 541.754 89.5724C542.627 91.4352 543.106 93.4576 543.164 95.5137C543.222 97.5699 542.856 99.6159 542.089 101.525C541.322 103.433 540.17 105.164 538.706 106.609C537.242 108.054 535.496 109.182 533.577 109.924L533.438 109.993L530.888 111.147L532.919 113.316C534.366 114.735 535.51 116.432 536.283 118.306C537.056 120.179 537.441 122.189 537.415 124.215C537.389 126.242 536.953 128.242 536.133 130.095C535.313 131.948 534.126 133.615 532.643 134.997C531.16 136.378 529.413 137.445 527.507 138.133C525.601 138.821 523.574 139.116 521.551 138.999C519.528 138.883 517.549 138.358 515.734 137.455C513.919 136.553 512.306 135.293 510.992 133.75V133.75L509.007 131.627L507.576 134.223C506.297 136.528 504.433 138.455 502.172 139.81C499.911 141.165 497.333 141.9 494.697 141.942V141.942Z" fill="white"/>
<path d="M506.259 118.225C512.728 118.225 517.972 112.982 517.972 106.514C517.972 100.046 512.728 94.8027 506.259 94.8027C499.789 94.8027 494.545 100.046 494.545 106.514C494.545 112.982 499.789 118.225 506.259 118.225Z" fill="#FAB900"/>
<path d="M721.227 152.519C717.2 149.753 713.978 145.969 711.889 141.553C710.302 138.242 709.384 134.651 709.185 130.984C708.987 127.318 709.513 123.648 710.733 120.185C711.954 116.722 713.844 113.533 716.297 110.801C718.75 108.068 721.718 105.846 725.03 104.26L730.022 101.855L726.194 97.8202C721.683 92.3519 719.416 85.3759 719.85 78.301C720.284 71.2262 723.388 64.5797 728.534 59.7041C733.68 54.8284 740.485 52.0869 747.574 52.0332C754.663 51.9795 761.509 54.6176 766.728 59.4147V59.4147L770.557 63.4234L773.144 58.5354C776.892 52.439 782.834 48.0099 789.748 46.1589C796.662 44.3079 804.023 45.1755 810.317 48.5835C816.611 51.9914 821.359 57.6806 823.587 64.4814C825.814 71.2823 825.351 78.6778 822.292 85.1476L819.705 90.0356L825.164 91.0442C832.46 92.3852 838.924 96.569 843.135 102.675C847.346 108.782 848.958 116.31 847.617 123.605C846.275 130.9 842.091 137.363 835.983 141.573C829.876 145.782 822.345 147.394 815.049 146.053H814.765L809.591 145.122L810.341 150.605C811.326 157.961 809.347 165.408 804.84 171.305C800.334 177.203 793.668 181.069 786.31 182.054C778.952 183.038 771.505 181.059 765.606 176.554C759.707 172.048 755.84 165.384 754.855 158.028V157.691L754.131 152.312L749.113 154.717C744.679 156.826 739.77 157.732 734.876 157.347C729.982 156.961 725.275 155.296 721.227 152.519Z" fill="white"/>
<path d="M777.259 133.123C789.359 133.123 799.168 123.315 799.168 111.217C799.168 99.1194 789.359 89.312 777.259 89.312C765.158 89.312 755.349 99.1194 755.349 111.217C755.349 123.315 765.158 133.123 777.259 133.123Z" fill="#FAB900"/>
<path d="M830.605 28.8677C830.322 26.4029 830.688 23.907 831.667 21.6273C833.165 18.2212 835.952 15.5472 839.417 14.1903C842.883 12.8333 846.744 12.904 850.158 14.3868L852.717 15.4971L852.982 12.7215C853.334 9.01219 855.146 5.59464 858.018 3.22067C859.441 2.04521 861.081 1.16131 862.844 0.61949C864.608 0.0776716 866.462 -0.111465 868.299 0.0628536C870.136 0.237172 871.921 0.77155 873.551 1.63547C875.182 2.49938 876.626 3.67593 877.802 5.09792C878.977 6.51991 879.862 8.15949 880.403 9.92307C880.945 11.6867 881.135 13.5397 880.96 15.3764V15.3764L880.695 18.1519L883.422 17.5485C886.997 16.9021 890.684 17.663 893.711 19.6719C896.737 21.6808 898.87 24.782 899.662 28.3268C900.454 31.8716 899.844 35.5853 897.96 38.691C896.076 41.7966 893.064 44.0536 889.554 44.9898L886.826 45.5931L888.25 48.0066C889.822 51.1857 890.134 54.8406 889.126 58.2403C888.117 61.6399 885.862 64.5335 882.811 66.3422C879.761 68.1509 876.14 68.7412 872.672 67.9952C869.205 67.2492 866.147 65.2217 864.111 62.3185V62.1737L862.759 59.905L860.924 62.0047C858.456 64.7988 854.979 66.4981 851.258 66.729C847.536 66.9598 843.876 65.7032 841.081 63.2356C838.287 60.7681 836.587 57.2917 836.356 53.5712C836.125 49.8507 837.382 46.1909 839.85 43.3969V43.3969L841.661 41.3454L839.102 40.2352C836.805 39.2632 834.808 37.6983 833.315 35.7009C831.822 33.7035 830.886 31.3453 830.605 28.8677V28.8677Z" fill="white"/>
<path d="M864.758 47.4792C870.837 47.4792 875.766 42.5519 875.766 36.4737C875.766 30.3956 870.837 25.4683 864.758 25.4683C858.678 25.4683 853.75 30.3956 853.75 36.4737C853.75 42.5519 858.678 47.4792 864.758 47.4792Z" fill="#FAB900"/>
<path d="M618.736 150.145C618.859 146.92 619.829 143.785 621.548 141.054C623.267 138.324 625.675 136.094 628.529 134.589C631.384 133.084 634.585 132.356 637.81 132.48C641.034 132.604 644.17 133.575 646.9 135.295L649.982 137.244L650.873 133.717C651.362 131.277 652.341 128.961 653.752 126.91C655.164 124.86 656.977 123.118 659.083 121.79C661.189 120.462 663.543 119.577 666.002 119.187C668.46 118.797 670.973 118.911 673.386 119.522C675.799 120.133 678.063 121.228 680.04 122.741C682.017 124.254 683.665 126.154 684.885 128.323C686.105 130.493 686.87 132.888 687.135 135.363C687.4 137.838 687.159 140.341 686.426 142.72L685.535 146.247L689.248 146.024C691.655 145.867 694.069 146.185 696.352 146.96C698.635 147.736 700.743 148.953 702.556 150.543C704.369 152.133 705.851 154.065 706.917 156.227C707.983 158.39 708.613 160.741 708.77 163.147C708.927 165.553 708.609 167.966 707.833 170.249C707.058 172.532 705.84 174.64 704.25 176.452C702.659 178.265 700.728 179.746 698.565 180.812C696.402 181.878 694.05 182.507 691.643 182.665L687.93 182.906L689.286 186.303C690.992 190.809 690.859 195.805 688.917 200.214C686.975 204.624 683.378 208.094 678.901 209.878C674.425 211.662 669.426 211.617 664.982 209.752C660.539 207.887 657.006 204.352 655.143 199.908V199.723L653.881 196.512L651.152 198.906C649.308 200.536 647.156 201.78 644.823 202.562C642.489 203.345 640.023 203.652 637.569 203.463C635.115 203.275 632.724 202.596 630.537 201.466C628.351 200.336 626.413 198.779 624.84 196.887C623.267 194.994 622.09 192.806 621.379 190.45C620.668 188.094 620.438 185.62 620.701 183.173C620.965 180.727 621.717 178.358 622.914 176.208C624.11 174.057 625.726 172.169 627.666 170.655V170.655L630.396 168.372L627.314 166.516C624.566 164.786 622.326 162.361 620.819 159.485C619.313 156.61 618.594 153.387 618.736 150.145V150.145Z" fill="white"/>
<path d="M661.324 181.106C669.26 181.106 675.694 174.674 675.694 166.739C675.694 158.805 669.26 152.373 661.324 152.373C653.388 152.373 646.954 158.805 646.954 166.739C646.954 174.674 653.388 181.106 661.324 181.106Z" fill="#FAB900"/>
<path d="M88.1353 205.892C82.7559 207.943 76.9342 208.556 71.2454 207.669C66.9612 207.008 62.8498 205.507 59.1472 203.253C55.4446 200.999 52.2238 198.035 49.6695 194.534C47.1152 191.032 45.2777 187.06 44.2626 182.846C43.2475 178.633 43.0746 174.26 43.754 169.98L44.7747 163.396L38.1899 164.417C33.9154 165.107 29.5468 164.947 25.3341 163.947C21.1214 162.947 17.1473 161.126 13.6396 158.588C10.1318 156.05 7.15911 152.846 4.8918 149.158C2.62448 145.47 1.10704 141.371 0.426345 137.096C-0.268715 132.82 -0.112701 128.448 0.885443 124.233C1.88359 120.017 3.70423 116.04 6.24297 112.529C8.7817 109.019 11.9886 106.044 15.6798 103.775C19.371 101.506 23.4738 99.9874 27.7531 99.3071L34.3378 98.2866L31.3747 92.4603C29.394 88.6081 28.1932 84.4028 27.8412 80.0857C27.4892 75.7685 27.9929 71.4244 29.3234 67.3022C30.6539 63.18 32.785 59.3609 35.5947 56.0638C38.4043 52.7667 41.8372 50.0564 45.6965 48.0883C49.5496 46.108 53.7557 44.9075 58.0738 44.5556C62.3919 44.2037 66.7369 44.7072 70.8599 46.0375C74.983 47.3677 78.8029 49.4984 82.1007 52.3075C85.3984 55.1165 88.1093 58.5487 90.0778 62.4072L93.0738 68.2335L97.6832 63.5922C100.742 60.5268 104.375 58.0947 108.375 56.4352C112.375 54.7758 116.663 53.9216 120.993 53.9216C125.324 53.9216 129.612 54.7758 133.612 56.4352C137.612 58.0947 141.245 60.5268 144.303 63.5922C147.369 66.6499 149.802 70.2823 151.462 74.2814C153.121 78.2805 153.976 82.5677 153.976 86.8974C153.976 91.2271 153.121 95.5143 151.462 99.5133C149.802 103.512 147.369 107.145 144.303 110.203L144.04 110.466L139.76 114.91L145.587 117.872C149.452 119.826 152.894 122.523 155.715 125.809C158.535 129.094 160.68 132.904 162.026 137.02C163.371 141.136 163.892 145.476 163.557 149.794C163.222 154.111 162.038 158.319 160.074 162.178C158.122 166.045 155.427 169.489 152.142 172.313C148.857 175.136 145.047 177.284 140.93 178.633C136.813 179.981 132.47 180.504 128.151 180.172C123.831 179.839 119.62 178.657 115.758 176.695V176.695L110.03 173.798L109.042 180.381C108.109 186.096 105.685 191.464 102.015 195.943C98.344 200.422 93.5564 203.854 88.1353 205.892V205.892Z" fill="white"/>
<path d="M85.3093 149.637C99.565 149.637 111.122 138.083 111.122 123.83C111.122 109.578 99.565 98.0234 85.3093 98.0234C71.0536 98.0234 59.4971 109.578 59.4971 123.83C59.4971 138.083 71.0536 149.637 85.3093 149.637Z" fill="#FAB900"/>
<path d="M389.982 97.749C387.308 99.4394 384.236 100.397 381.074 100.524C378.693 100.628 376.315 100.261 374.075 99.4448C371.836 98.6285 369.78 97.3786 368.024 95.7668C366.269 94.1551 364.848 92.213 363.844 90.0517C362.84 87.8905 362.272 85.5525 362.173 83.1715L362.004 79.5755L358.624 80.8305C356.392 81.6614 354.019 82.0446 351.639 81.9582C349.259 81.8718 346.92 81.3174 344.754 80.3268C342.589 79.3361 340.64 77.9287 339.018 76.1847C337.397 74.4407 336.135 72.3945 335.305 70.1629C334.47 67.9318 334.082 65.5579 334.165 63.177C334.248 60.7961 334.8 58.4548 335.789 56.2872C336.777 54.1197 338.184 52.1682 339.928 50.5445C341.671 48.9208 343.718 47.6567 345.951 46.8246V46.8246L349.33 45.5696L347.085 42.7458C344.097 38.9748 342.729 34.1722 343.282 29.3932C343.834 24.6142 346.261 20.2499 350.03 17.2595C351.897 15.7773 354.037 14.6776 356.329 14.0234C358.621 13.3691 361.019 13.1731 363.387 13.4466C365.755 13.7201 368.045 14.4577 370.127 15.6172C372.21 16.7767 374.043 18.3353 375.522 20.2039L377.767 23.0036L379.747 20.0108C382.408 16.0019 386.552 13.2135 391.269 12.2586C395.986 11.3036 400.889 12.2603 404.9 14.9184C406.888 16.2336 408.597 17.928 409.929 19.9044C411.262 21.8808 412.191 24.1005 412.664 26.4364C413.137 28.7723 413.145 31.1786 412.687 33.5175C412.228 35.8564 411.313 38.0819 409.994 40.0668V40.2358L408.111 43.0595L411.563 44.0249C416.198 45.3203 420.13 48.4005 422.496 52.5901C424.863 56.7796 425.471 61.7365 424.188 66.3738C422.898 71.0112 419.818 74.9464 415.626 77.3136C411.434 79.6808 406.473 80.286 401.834 78.9962V78.9962L398.431 78.055L398.6 81.6511C398.717 84.8568 397.98 88.036 396.466 90.8642C394.952 93.6924 392.715 96.0682 389.982 97.749V97.749Z" fill="white"/>
<path d="M379.584 67.965C387.423 67.965 393.778 61.6114 393.778 53.7738C393.778 45.9362 387.423 39.5825 379.584 39.5825C371.745 39.5825 365.39 45.9362 365.39 53.7738C365.39 61.6114 371.745 67.965 379.584 67.965Z" fill="#FAB900"/>
</svg>