<?xml version="1.0" encoding="UTF-8" standalone="no"?>
<!-- Created with Inkscape (http://www.inkscape.org/) -->

<svg
   width="150"
   height="150"
   viewBox="0 0 39.687499 39.687501"
   version="1.1"
   id="svg5"
   xmlns="http://www.w3.org/2000/svg"
   xmlns:svg="http://www.w3.org/2000/svg">
  <defs
     id="defs2">
    <filter
       style="color-interpolation-filters:sRGB"
       id="filter1581"
       x="-0.11871827"
       y="-0.12228893"
       width="1.2374365"
       height="1.2445779">
      <feGaussianBlur
         stdDeviation="0.90905305"
         id="feGaussianBlur1583" />
    </filter>
  </defs>
  <g
     id="glow">
    <path
       id="path1404-5"
       style="fill:none;fill-opacity:1;stroke:#ffffff;stroke-width:2.64583333;stroke-miterlimit:4;stroke-dasharray:none;stroke-opacity:1;filter:url(#filter1581)"
       d="m 19.84375,4.6302083 a 5.9531249,5.9531249 0 0 0 -5.953125,5.9531247 5.9531249,5.9531249 0 0 0 0.135392,1.251603 5.9531249,5.9531249 0 0 0 -2.989482,-0.806152 5.9531249,5.9531249 0 0 0 -5.9531248,5.953125 5.9531249,5.9531249 0 0 0 5.3500608,5.919019 5.9531249,5.9531249 0 0 0 -1.9859253,4.434872 5.9531249,5.9531249 0 0 0 5.9531253,5.953125 5.9531249,5.9531249 0 0 0 5.443079,-3.552756 5.9531249,5.9531249 0 0 0 5.443078,3.552756 5.9531249,5.9531249 0 0 0 5.953126,-5.953125 5.9531249,5.9531249 0 0 0 -1.982827,-4.435389 5.9531249,5.9531249 0 0 0 5.346962,-5.918502 5.9531249,5.9531249 0 0 0 -5.953125,-5.953125 5.9531249,5.9531249 0 0 0 -2.989482,0.806152 5.9531249,5.9531249 0 0 0 0.135393,-1.251603 5.9531249,5.9531249 0 0 0 -5.953125,-5.9531247 z m 0,9.9218747 a 5.2916663,5.2916663 0 0 1 5.291666,5.291667 5.2916663,5.2916663 0 0 1 -5.291666,5.291667 5.2916663,5.2916663 0 0 1 -5.291667,-5.291667 5.2916663,5.2916663 0 0 1 5.291667,-5.291667 z" />
  </g>
  <g
     id="flower">
    <path
       id="path1404"
       style="fill:#64b482;fill-opacity:1;stroke:none;stroke-width:0;stroke-miterlimit:4;stroke-dasharray:none"
       d="M 75 17.5 A 22.5 22.5 0 0 0 52.5 40 A 22.5 22.5 0 0 0 53.011719 44.730469 A 22.5 22.5 0 0 0 41.712891 41.683594 A 22.5 22.5 0 0 0 19.212891 64.183594 A 22.5 22.5 0 0 0 39.433594 86.554688 A 22.5 22.5 0 0 0 31.927734 103.31641 A 22.5 22.5 0 0 0 54.427734 125.81641 A 22.5 22.5 0 0 0 75 112.38867 A 22.5 22.5 0 0 0 95.572266 125.81641 A 22.5 22.5 0 0 0 118.07227 103.31641 A 22.5 22.5 0 0 0 110.57812 86.552734 A 22.5 22.5 0 0 0 130.78711 64.183594 A 22.5 22.5 0 0 0 108.28711 41.683594 A 22.5 22.5 0 0 0 96.988281 44.730469 A 22.5 22.5 0 0 0 97.5 40 A 22.5 22.5 0 0 0 75 17.5 z M 75 55 A 19.999999 19.999999 0 0 1 95 75 A 19.999999 19.999999 0 0 1 75 95 A 19.999999 19.999999 0 0 1 55 75 A 19.999999 19.999999 0 0 1 75 55 z "
       transform="scale(0.26458333)" />
  </g>
</svg>
